<?xml version="1.0" encoding="utf-8"?>
<!-- Generator: Adobe Illustrator 16.0.0, SVG Export Plug-In . SVG Version: 6.00 Build 0)  -->
<!DOCTYPE svg PUBLIC "-//W3C//DTD SVG 1.1//EN" "http://www.w3.org/Graphics/SVG/1.1/DTD/svg11.dtd">
<svg version="1.1" id="Layer_1" xmlns="http://www.w3.org/2000/svg" xmlns:xlink="http://www.w3.org/1999/xlink" x="0px" y="0px"
	 width="512px" height="512px" viewBox="0 0 512 512" enable-background="new 0 0 512 512" xml:space="preserve">
<g>
	<path fill="#FFFFFF" d="M168.036,162.942c-12.456,0-21.042,1.244-25.372,2.486v80.653c5.287,1.137,11.674,1.527,20.544,1.527
		c32.822,0,53.226-16.607,53.226-44.639C216.293,177.882,198.942,162.942,168.036,162.942z"/>
	<path fill="#FFFFFF" d="M0,0v512h512V0H0z M252.308,266.345c-20.935,19.8-52.232,28.671-88.71,28.671
		c-8.018,0-15.365-0.283-21.041-1.101v97.724h-61.14V122.03c18.986-3.192,45.739-5.678,83.423-5.678
		c38.146,0,65.29,7.203,83.458,21.893c17.599,13.733,29.237,36.478,29.237,63.234C277.537,228.199,268.668,250.944,252.308,266.345z
		 M344.638,395.648c-25.938,0-49.071-5.68-64.046-13.84l10.963-44.107c11.355,6.814,34.776,14.975,53.083,14.975
		c18.559,0,26.329-6.492,26.329-16.642c0-10.114-6.104-14.939-29.095-22.71c-41.055-13.73-56.847-36.052-56.421-59.613
		c0-36.868,31.616-64.866,80.656-64.866c23.171,0,43.822,5.252,55.993,11.355L411.17,242.78c-9.013-4.86-25.938-11.39-42.969-11.39
		c-14.974,0-23.42,6.104-23.42,16.218c0,9.296,7.63,14.157,31.865,22.746c37.719,12.879,53.509,32.006,53.937,61.139
		C430.582,368.502,401.307,395.648,344.638,395.648z"/>
</g>
</svg>
